<?xml version="1.0" standalone="no"?>
<!DOCTYPE svg PUBLIC "-//W3C//DTD SVG 20010904//EN"
 "http://www.w3.org/TR/2001/REC-SVG-20010904/DTD/svg10.dtd">
<svg version="1.0" xmlns="http://www.w3.org/2000/svg"
 width="192.000000pt" height="192.000000pt" viewBox="0 0 192.000000 192.000000"
 preserveAspectRatio="xMidYMid meet">

<g transform="translate(0.000000,192.000000) scale(0.100000,-0.100000)"
fill="#000000" stroke="none">
<path d="M817 1863 c56 -123 40 -253 -48 -399 -55 -90 -151 -292 -178 -374
-50 -153 -64 -324 -37 -430 16 -63 12 -75 -15 -42 -30 38 -49 117 -59 252 -12
149 -30 219 -70 263 l-30 32 6 -46 c5 -35 0 -68 -19 -130 -83 -274 -71 -500
35 -677 18 -29 65 -86 103 -126 56 -59 87 -81 155 -114 206 -98 406 -96 609 4
186 92 307 249 333 434 28 199 -49 447 -216 693 -76 113 -106 196 -106 301
l-1 71 -53 -57 c-79 -83 -99 -143 -94 -277 5 -101 4 -103 -13 -80 -29 39 -39
100 -39 236 0 207 -34 314 -128 416 -40 42 -132 107 -154 107 -4 0 5 -26 19
-57z"/>
</g>
</svg>
